<?xml version="1.0" standalone="no"?>
<!DOCTYPE svg PUBLIC "-//W3C//DTD SVG 20010904//EN"
 "http://www.w3.org/TR/2001/REC-SVG-20010904/DTD/svg10.dtd">
<svg version="1.0" xmlns="http://www.w3.org/2000/svg"
 width="300.000000pt" height="225.000000pt" viewBox="0 0 300.000000 225.000000"
 preserveAspectRatio="xMidYMid meet">
<metadata>
Created by potrace 1.10, written by Peter Selinger 2001-2011
</metadata>
<g transform="translate(0.000000,225.000000) scale(0.100000,-0.100000)"
fill="#000000" stroke="none">
<path d="M1727 2030 c-7 -18 -18 -29 -27 -27 -24 3 -25 -39 0 -46 20 -5 20 -6
3 -36 -17 -29 -17 -31 0 -44 16 -11 17 -17 6 -40 -9 -21 -9 -30 1 -42 10 -12
10 -19 2 -27 -7 -7 -12 -26 -12 -43 0 -17 5 -36 12 -43 8 -8 8 -15 0 -25 -7
-8 -9 -17 -6 -20 10 -9 23 -89 17 -103 -2 -7 -11 -10 -20 -7 -11 4 -14 0 -11
-17 2 -18 14 -27 48 -38 25 -7 52 -16 60 -19 25 -10 44 -15 78 -20 17 -3 32
-9 32 -14 0 -5 10 -8 23 -8 12 1 57 -6 100 -15 62 -13 82 -15 93 -5 8 6 17 9
21 6 3 -4 -25 -36 -63 -72 -125 -119 -163 -159 -169 -182 -3 -13 -12 -23 -21
-23 -11 0 -14 -6 -8 -22 4 -13 12 -26 18 -30 6 -4 8 -10 4 -13 -8 -8 11 -65
22 -65 5 0 12 -15 15 -32 4 -18 11 -37 15 -43 7 -9 20 -78 22 -115 0 -8 5 -21
11 -28 14 -18 15 -82 0 -82 -6 0 -20 14 -30 31 -11 18 -29 33 -46 36 -15 3
-30 10 -33 14 -3 5 -18 9 -33 9 -15 0 -33 6 -40 12 -10 11 -15 9 -27 -6 -17
-24 -19 -66 -2 -66 6 0 4 -8 -6 -19 -12 -14 -14 -20 -5 -23 22 -7 31 -125 10
-137 -11 -7 -8 -12 9 -21 22 -12 22 -14 7 -25 -11 -8 -17 -26 -17 -49 0 -20
-4 -36 -10 -36 -5 0 -10 -21 -10 -47 0 -29 -6 -53 -16 -65 -10 -10 -19 -40
-22 -68 -5 -51 -15 -64 -26 -33 -3 10 -10 25 -15 33 -8 13 -17 32 -26 60 -1 3
-7 18 -13 33 -7 16 -12 30 -12 33 0 2 -11 22 -24 43 -13 21 -30 64 -38 96 -8
36 -19 60 -30 64 -9 3 -17 10 -17 15 0 5 -16 11 -36 13 -39 4 -45 -9 -20 -44
10 -14 12 -24 5 -28 -5 -3 -10 1 -10 11 0 12 -6 15 -22 10 -13 -3 -26 -6 -30
-6 -5 0 -8 -7 -8 -15 0 -9 -8 -14 -22 -12 -20 2 -23 -2 -20 -26 3 -24 0 -28
-16 -23 -14 5 -27 -5 -51 -40 -45 -61 -62 -45 -26 25 15 28 31 54 37 57 5 3 4
12 -3 20 -8 9 -8 18 -2 27 10 12 27 76 28 107 0 8 4 21 8 28 5 6 5 12 1 12 -4
0 1 10 12 22 10 12 13 18 7 14 -9 -5 -13 0 -13 14 0 12 5 18 10 15 6 -3 10 1
10 9 0 9 5 16 11 16 6 0 9 6 6 14 -3 7 0 19 6 25 9 9 9 14 -1 20 -11 7 -11 9
2 14 21 8 11 32 -20 46 -21 9 -27 7 -46 -14 -12 -14 -29 -25 -38 -25 -9 0 -29
-13 -43 -30 -36 -40 -103 -83 -117 -75 -8 5 -7 12 3 23 18 23 50 93 50 112 0
8 6 24 13 35 8 11 14 29 14 42 0 12 5 25 10 28 15 9 12 41 -5 55 -12 10 -15
10 -15 -4 0 -9 -8 -16 -17 -17 -10 0 -31 -9 -48 -20 -16 -10 -41 -23 -55 -29
-14 -6 -37 -17 -51 -25 -14 -8 -52 -17 -83 -21 -31 -4 -56 -10 -56 -14 0 -4
-22 -8 -50 -9 -52 -1 -66 13 -36 38 8 7 26 35 41 62 14 28 39 69 55 91 27 37
50 121 36 135 -3 3 -12 0 -20 -6 -12 -10 -21 -8 -44 9 -17 12 -35 19 -41 16
-6 -4 -11 -1 -11 7 0 8 -17 21 -37 30 -50 22 -126 65 -133 76 -3 5 -19 12 -37
15 -37 8 -63 33 -42 40 51 15 157 48 169 53 8 4 19 5 24 4 4 -1 13 3 20 8 6 5
29 12 51 16 22 4 45 11 50 15 6 4 28 11 50 14 65 11 105 29 111 48 3 10 16 26
30 34 13 9 24 22 24 29 0 7 6 16 13 19 9 5 9 7 -1 12 -8 4 -5 11 10 25 20 16
21 18 5 19 -18 0 -18 1 1 28 10 15 26 44 35 64 10 20 22 40 28 44 12 7 79 -54
79 -72 0 -21 25 -35 40 -21 10 10 12 8 7 -10 -4 -17 2 -27 29 -42 19 -11 40
-18 48 -15 13 5 31 -24 21 -34 -3 -3 -5 0 -5 6 0 7 -5 12 -12 12 -6 0 -4 -7 5
-18 10 -10 17 -28 17 -40 0 -12 6 -22 14 -22 7 0 30 -11 50 -25 l36 -24 6 24
c3 14 10 25 14 25 4 0 10 8 14 18 9 26 54 104 72 124 9 9 17 28 17 42 0 15 11
35 28 51 34 30 34 32 10 64 -19 25 -41 22 -41 -6 0 -12 -3 -13 -13 -5 -10 9
-13 4 -14 -24 -1 -19 -8 -43 -17 -53 -9 -10 -16 -21 -16 -26 0 -13 -41 -94
-50 -100 -5 -3 -7 -12 -3 -20 3 -8 0 -15 -5 -15 -6 0 -12 -12 -14 -27 -4 -30
-11 -20 -22 28 -6 29 -79 104 -142 147 -22 15 -48 36 -59 47 -11 11 -32 26
-47 32 -17 8 -28 20 -28 33 0 16 -7 20 -30 20 -22 0 -28 -4 -24 -15 4 -9 -1
-18 -11 -21 -13 -5 -14 -9 -3 -15 10 -7 10 -9 1 -9 -7 0 -13 -7 -13 -15 0 -8
-3 -15 -7 -15 -5 0 -9 -14 -10 -31 -1 -18 -9 -39 -18 -49 -8 -9 -15 -24 -15
-33 0 -9 -5 -19 -10 -22 -6 -4 -21 -29 -32 -56 -21 -47 -32 -55 -80 -63 -9 -1
-22 -7 -29 -12 -8 -6 -34 -12 -59 -13 -24 -1 -51 -8 -60 -15 -20 -18 -107 -46
-141 -46 -28 0 -51 -8 -124 -41 -22 -10 -51 -19 -64 -21 -39 -5 -36 -26 4 -34
36 -6 92 -49 168 -129 31 -32 40 -37 47 -25 8 12 10 12 10 1 0 -7 6 -11 14 -8
8 3 20 -1 26 -9 7 -8 21 -14 32 -14 18 0 19 -2 7 -17 -13 -15 -11 -16 13 -10
16 4 30 3 33 -4 4 -6 18 -8 30 -5 29 7 41 -9 24 -31 -7 -8 -18 -23 -24 -33
-33 -58 -72 -109 -82 -110 -8 0 -13 -13 -13 -29 0 -17 -4 -32 -10 -36 -5 -3
-6 -13 -3 -22 5 -13 2 -15 -11 -10 -14 5 -17 2 -14 -15 2 -16 12 -24 38 -29
19 -4 39 -5 44 -2 5 3 27 8 49 10 22 2 63 10 91 18 27 8 60 15 73 15 13 0 23
5 23 10 0 6 10 10 23 10 13 0 32 7 43 15 26 20 38 19 29 -2 -4 -10 -7 -28 -6
-40 0 -14 -5 -23 -14 -23 -21 0 -19 -18 3 -23 14 -4 15 -5 1 -6 -11 -1 -19
-14 -23 -35 -4 -19 -13 -39 -21 -46 -8 -7 -15 -21 -15 -31 0 -11 -4 -19 -8
-19 -14 0 -8 -45 9 -64 17 -18 19 -17 58 15 23 18 41 39 41 46 0 8 4 11 10 8
12 -8 53 19 43 29 -4 3 8 3 25 0 31 -6 32 -5 32 25 0 28 3 32 23 29 19 -3 22
-8 19 -38 -1 -19 -8 -48 -16 -65 -33 -70 -51 -125 -62 -190 -2 -11 -9 -42 -14
-70 -23 -113 -23 -124 -7 -131 10 -3 29 7 51 27 33 30 59 47 96 66 8 4 23 17
33 30 10 13 25 23 33 23 17 0 19 17 2 23 -7 2 -9 8 -5 13 4 5 12 2 17 -6 8
-12 14 -11 40 8 28 21 31 22 36 5 8 -24 16 -45 53 -132 17 -40 31 -79 31 -86
0 -7 6 -18 14 -24 7 -6 16 -24 19 -40 8 -39 56 -89 84 -87 26 1 74 56 49 56
-21 0 -21 1 12 62 16 29 27 59 25 65 -3 7 3 27 11 44 9 18 16 56 16 85 0 29 5
56 10 59 16 10 12 121 -5 135 -13 11 -13 14 2 26 11 9 14 17 8 21 -5 5 -11 18
-12 31 -2 16 2 22 18 22 22 0 26 -3 102 -72 29 -27 55 -48 60 -48 4 0 12 -11
17 -25 5 -14 14 -25 20 -25 18 0 23 30 9 57 -12 22 -11 26 4 34 19 11 23 54 7
64 -6 4 -9 12 -8 18 1 7 -3 22 -10 35 -7 12 -11 26 -8 31 3 5 0 14 -8 20 -13
11 -31 66 -27 85 1 4 -6 20 -15 33 -11 18 -13 28 -5 36 15 15 14 27 -1 27 -7
0 -22 18 -32 40 -18 38 -19 42 -3 75 9 19 23 35 32 35 8 0 15 5 15 10 0 9 36
52 70 85 101 97 130 132 130 158 0 20 -5 27 -20 27 -11 0 -20 5 -20 11 0 8 -5
7 -15 -1 -17 -14 -108 -8 -129 8 -6 5 -32 13 -58 16 -26 4 -50 12 -54 17 -3 6
-12 8 -19 5 -8 -3 -15 -1 -17 4 -4 11 -49 15 -71 5 -10 -4 -20 -5 -22 -3 -9 9
-11 118 -3 118 5 0 6 6 1 13 -8 13 -17 281 -11 337 4 40 -3 90 -13 90 -6 0
-16 -13 -22 -30z"/>
</g>
</svg>
