<?xml version="1.0" standalone="no"?>
<!DOCTYPE svg PUBLIC "-//W3C//DTD SVG 20010904//EN"
 "http://www.w3.org/TR/2001/REC-SVG-20010904/DTD/svg10.dtd">
<svg version="1.0" xmlns="http://www.w3.org/2000/svg"
 width="300.000000pt" height="225.000000pt" viewBox="0 0 300.000000 225.000000"
 preserveAspectRatio="xMidYMid meet">
<metadata>
Created by potrace 1.10, written by Peter Selinger 2001-2011
</metadata>
<g transform="translate(0.000000,225.000000) scale(0.100000,-0.100000)"
fill="#000000" stroke="none">
<path d="M1185 1570 c-16 -5 -44 -12 -62 -15 -35 -5 -103 -45 -148 -87 -16
-16 -35 -28 -41 -28 -7 0 -14 -7 -18 -15 -3 -8 -11 -15 -18 -15 -7 0 -23 -16
-36 -36 -12 -19 -30 -38 -40 -41 -22 -9 -35 -20 -74 -60 -45 -48 -52 -40 -16
18 27 42 29 52 17 60 -22 14 -32 6 -56 -42 -26 -52 -88 -127 -97 -118 -4 4 5
46 19 94 14 48 25 89 25 91 0 2 -9 4 -19 4 -24 0 -44 -28 -99 -140 -24 -47
-49 -93 -57 -104 -15 -19 -40 -13 -31 9 2 7 8 54 11 104 6 79 5 92 -9 97 -14
5 -15 16 -10 70 8 75 -3 94 -51 94 -41 0 -63 -18 -150 -120 -38 -45 -82 -96
-97 -113 -28 -32 -28 -47 -1 -47 9 0 13 3 10 7 -9 8 48 78 142 176 53 55 82
77 99 77 25 0 25 0 18 -77 -4 -42 -18 -101 -30 -132 -36 -86 -48 -130 -42
-148 11 -28 34 5 57 81 35 117 39 118 33 4 l-6 -107 26 -7 c36 -9 59 13 103
103 20 40 38 73 40 73 6 0 -9 -55 -18 -65 -13 -14 -11 -55 4 -56 29 -3 63 4
76 14 8 7 23 11 35 9 14 -1 42 18 84 58 35 34 69 59 75 57 14 -5 67 23 67 36
0 12 98 104 148 138 78 53 94 58 218 75 36 5 45 2 67 -22 33 -35 51 -107 38
-152 -5 -18 -9 -33 -9 -35 1 -1 -3 -13 -7 -27 -17 -55 -116 -172 -157 -185
-11 -4 -18 -16 -18 -30 0 -13 -4 -26 -10 -30 -5 -3 -6 -15 -1 -28 19 -50 92
-17 121 54 8 19 20 38 27 42 7 5 11 12 8 17 -3 5 7 18 22 30 21 16 38 20 77
18 48 -3 51 -5 51 -30 -1 -35 -26 -98 -39 -98 -6 -1 0 -10 13 -20 23 -20 23
-20 60 2 20 12 46 30 59 39 18 14 29 16 48 9 28 -11 47 -5 89 26 52 38 72 39
110 6 18 -17 43 -33 55 -37 20 -6 21 -8 4 -26 -9 -10 -32 -21 -50 -25 -19 -3
-34 -10 -34 -14 0 -4 -11 -11 -25 -14 -14 -4 -35 -16 -46 -27 -12 -12 -51 -36
-88 -54 -82 -42 -191 -143 -191 -179 0 -41 53 -45 125 -9 22 11 56 24 75 28
19 4 40 11 45 15 6 4 42 15 80 26 39 10 98 33 133 51 71 38 73 38 66 19 -8
-22 35 -133 74 -189 18 -27 31 -55 28 -63 -3 -8 -1 -14 4 -14 4 0 11 -14 15
-30 4 -17 11 -30 16 -30 5 0 15 -15 23 -32 7 -18 23 -44 35 -57 11 -13 18 -28
15 -32 -3 -5 0 -9 5 -9 6 0 11 -11 11 -24 0 -14 7 -26 18 -29 9 -2 24 -8 33
-11 16 -7 63 26 53 37 -4 3 -8 41 -10 84 -2 43 -5 96 -8 117 -8 80 27 131 120
179 27 14 64 39 82 55 19 16 59 39 90 52 31 13 59 27 62 31 3 5 37 21 75 36
37 15 70 33 72 40 6 19 -33 25 -90 14 -28 -5 -92 -12 -142 -15 -49 -3 -103 -8
-120 -10 -16 -3 -50 -7 -75 -10 -25 -3 -54 -8 -64 -12 -12 -5 -17 -3 -15 4 12
32 160 192 179 192 5 0 23 12 39 28 16 15 40 34 53 44 18 13 21 19 11 29 -11
11 -22 10 -60 -4 -27 -9 -57 -18 -68 -20 -11 -2 -30 -8 -41 -15 -12 -6 -52
-21 -90 -34 -38 -12 -71 -25 -74 -30 -7 -9 -81 -41 -85 -36 -2 2 19 17 46 33
27 17 49 35 49 41 0 5 8 19 18 30 10 10 24 44 31 75 13 53 12 57 -10 92 -36
54 -91 77 -182 77 -91 0 -116 -8 -183 -63 -45 -37 -84 -96 -84 -127 0 -6 -3
-10 -6 -10 -7 0 -45 20 -58 31 -77 63 -196 111 -230 92 -15 -8 -14 -11 4 -31
12 -12 27 -22 35 -22 7 0 22 -15 34 -33 11 -18 47 -50 80 -72 34 -21 61 -40
61 -42 0 -1 -19 -12 -41 -24 -31 -15 -48 -18 -63 -12 -23 10 -56 6 -56 -7 0
-8 -61 -43 -66 -37 -2 1 1 19 6 40 6 30 4 42 -10 60 -16 19 -28 22 -84 22 -58
0 -82 7 -58 17 4 2 17 26 28 53 22 54 25 131 5 178 -6 16 -11 35 -11 43 0 8
-4 14 -9 14 -5 0 -17 7 -26 16 -19 20 -125 28 -170 14z m1008 -161 c36 -29 38
-35 36 -78 -5 -73 -73 -161 -124 -161 -12 0 -26 -5 -32 -11 -9 -9 -28 -5 -77
16 -36 15 -66 31 -66 35 0 4 -16 11 -35 14 -42 8 -51 21 -31 42 15 14 20 29
17 47 -3 18 96 99 139 112 79 24 130 19 173 -16z m-480 -124 c37 -25 67 -53
67 -61 0 -20 -14 -17 -35 6 -10 11 -23 20 -29 20 -12 0 -62 44 -86 74 -13 18
-13 19 0 14 9 -3 46 -27 83 -53z m767 -67 c0 -2 -33 -27 -73 -57 -39 -29 -92
-78 -117 -108 -25 -30 -51 -61 -58 -69 -8 -8 -11 -22 -8 -30 5 -14 18 -15 89
-9 45 4 93 8 107 10 99 15 266 33 269 29 2 -2 -1 -4 -7 -4 -6 0 -40 -13 -75
-30 -36 -16 -69 -30 -74 -30 -15 0 -115 -50 -130 -65 -7 -8 -37 -26 -65 -40
-29 -14 -64 -39 -79 -54 -28 -30 -27 -23 -31 -221 0 -19 3 -45 7 -57 11 -33
-13 -29 -27 5 -7 15 -23 42 -36 60 -14 17 -20 32 -16 32 5 0 1 5 -8 11 -10 5
-18 17 -18 25 0 18 -31 79 -65 130 -14 20 -25 45 -25 55 0 11 -4 19 -8 19 -5
0 -15 19 -21 43 -7 23 -18 48 -23 55 -15 18 -71 5 -149 -34 -36 -19 -73 -34
-82 -34 -10 0 -43 -9 -75 -21 -31 -12 -65 -21 -74 -21 -10 1 -18 -3 -18 -9 0
-5 -7 -9 -16 -9 -9 0 -27 -9 -41 -20 -44 -35 -71 -23 -34 16 54 56 105 96 162
124 35 18 71 38 79 45 23 20 111 65 127 65 17 0 63 48 63 66 0 8 -7 14 -15 14
-20 0 -115 71 -115 86 0 28 33 25 90 -8 8 -5 44 -22 80 -39 36 -16 73 -34 84
-40 34 -19 137 9 346 97 49 20 80 29 80 22z"/>
</g>
</svg>
