<?xml version="1.0" standalone="no"?>
<!DOCTYPE svg PUBLIC "-//W3C//DTD SVG 20010904//EN"
 "http://www.w3.org/TR/2001/REC-SVG-20010904/DTD/svg10.dtd">
<svg version="1.0" xmlns="http://www.w3.org/2000/svg"
 width="300.000000pt" height="225.000000pt" viewBox="0 0 300.000000 225.000000"
 preserveAspectRatio="xMidYMid meet">
<metadata>
Created by potrace 1.10, written by Peter Selinger 2001-2011
</metadata>
<g transform="translate(0.000000,225.000000) scale(0.100000,-0.100000)"
fill="#000000" stroke="none">
<path d="M1395 2128 c-13 -43 -14 -87 -3 -90 7 -3 14 -20 14 -39 2 -31 13 -92
30 -159 6 -27 16 -117 15 -137 -1 -7 -1 -21 0 -30 5 -116 3 -241 -4 -250 -5
-7 -7 -23 -4 -35 11 -44 -8 -52 -34 -13 -13 19 -32 38 -41 41 -10 3 -18 9 -18
14 0 12 -44 77 -72 106 -39 40 -58 64 -58 72 0 4 -16 17 -35 30 -19 12 -35 26
-35 32 0 5 -15 16 -33 25 -32 15 -72 66 -61 78 8 8 -54 20 -66 12 -15 -9 -5
-60 20 -94 12 -18 20 -40 17 -51 -3 -11 0 -18 6 -17 6 1 19 -20 29 -48 11 -27
24 -55 29 -62 16 -19 79 -144 79 -157 0 -6 14 -26 30 -44 17 -18 30 -40 30
-49 0 -8 11 -28 23 -43 29 -34 26 -90 -4 -90 -10 0 -21 5 -24 10 -3 6 -15 10
-26 10 -10 0 -19 5 -19 12 0 9 -3 9 -11 1 -9 -9 -20 -8 -43 2 -17 7 -43 18
-58 24 -16 6 -28 17 -28 25 0 9 -6 13 -12 11 -7 -3 -31 11 -53 30 -21 20 -45
33 -52 31 -7 -3 -15 -1 -18 4 -4 6 -19 10 -35 10 -15 0 -30 5 -32 10 -4 14
-69 -7 -85 -28 -10 -13 -10 -18 0 -25 9 -7 9 -10 -1 -14 -17 -7 -5 -23 18 -23
10 0 21 -9 25 -20 4 -12 21 -24 46 -30 21 -6 39 -14 39 -19 0 -4 13 -8 29 -8
15 0 38 -9 50 -20 13 -12 43 -26 67 -32 24 -6 44 -16 44 -22 0 -7 15 -26 34
-44 19 -17 36 -40 37 -50 2 -11 15 -22 29 -26 14 -4 22 -7 18 -8 -11 -1 32
-43 56 -56 37 -19 41 -39 18 -87 -12 -24 -22 -52 -22 -61 0 -9 -4 -17 -10 -17
-5 0 -10 -5 -10 -10 0 -10 -32 -86 -50 -122 -6 -11 -5 -18 3 -21 9 -3 7 -13
-6 -37 -9 -17 -15 -35 -12 -40 3 -4 -2 -13 -10 -20 -8 -7 -15 -21 -15 -30 0
-10 -5 -20 -12 -22 -6 -2 -12 -14 -13 -27 -1 -12 -7 -26 -13 -30 -16 -9 -3
-51 16 -51 8 0 21 -8 28 -18 8 -10 13 -12 14 -4 0 6 6 12 13 12 21 1 70 58 64
74 -4 10 2 20 13 26 11 6 20 19 20 30 0 10 5 22 10 25 6 3 10 14 10 24 0 9 8
26 18 37 10 10 35 55 57 100 30 62 43 80 56 77 14 -4 15 -10 8 -36 -5 -18 -5
-35 0 -40 5 -5 6 -34 4 -65 -3 -35 1 -69 9 -88 11 -27 16 -30 36 -23 12 5 22
17 22 28 0 11 5 23 10 26 6 3 10 28 10 55 0 68 5 77 43 72 31 -4 34 -1 47 40
16 47 16 53 6 85 -7 21 -5 22 26 16 36 -7 67 -38 68 -66 0 -10 8 -21 18 -24 9
-4 22 -12 28 -17 6 -6 36 -33 67 -59 43 -38 57 -57 66 -93 8 -29 23 -55 41
-71 17 -14 28 -29 24 -34 -3 -5 0 -9 5 -9 6 0 11 -12 11 -26 0 -46 15 -61 57
-58 21 2 48 3 60 3 48 2 82 109 43 133 -11 7 -20 17 -20 21 0 23 -55 124 -79
146 -39 36 -101 116 -101 130 0 6 -5 11 -11 11 -6 0 -8 7 -5 15 4 10 -2 19
-16 24 -15 5 -18 10 -9 15 8 5 20 0 31 -12 12 -13 27 -18 43 -15 14 3 28 0 31
-6 4 -6 20 -11 36 -11 16 0 33 -6 37 -14 6 -10 19 -12 47 -7 37 6 39 7 42 52
4 40 1 48 -26 72 -16 15 -30 32 -30 38 0 7 -10 9 -24 5 -17 -4 -30 1 -48 19
-30 30 -75 48 -83 34 -9 -14 -92 -4 -113 14 -9 8 -36 15 -59 15 -52 1 -92 26
-100 64 -3 15 -12 28 -19 28 -18 0 -28 43 -18 78 4 15 6 32 5 39 -1 6 3 14 9
18 5 3 10 21 10 40 0 18 9 54 20 79 10 25 17 52 14 60 -3 7 2 21 11 30 9 9 14
23 11 32 -3 8 7 38 23 66 24 41 27 54 18 69 -8 13 -8 24 1 44 27 59 -1 134
-44 119 -67 -24 -113 -88 -123 -169 -6 -49 -7 -50 -20 -25 -8 14 -13 44 -12
67 1 23 -4 55 -11 70 -8 15 -13 39 -13 53 0 14 -3 27 -7 30 -3 3 -10 32 -13
65 -4 33 -11 80 -17 105 -5 25 -14 70 -20 100 -11 57 -31 90 -55 90 -7 0 -15
-6 -18 -12z m4 -982 c7 -8 8 -17 3 -20 -6 -3 -12 3 -15 14 -6 24 -4 25 12 6z
m-161 -135 c3 -8 -1 -12 -9 -9 -7 2 -15 10 -17 17 -3 8 1 12 9 9 7 -2 15 -10
17 -17z m68 -3 c9 -12 9 -24 5 -70 -2 -24 -18 -23 -26 1 -3 11 -15 23 -26 26
-24 8 -25 31 -1 44 23 14 38 13 48 -1z m183 -139 c-2 -85 -19 -79 -24 10 -3
49 -1 61 11 61 12 0 14 -14 13 -71z m136 -69 c3 -5 2 -10 -4 -10 -5 0 -13 5
-16 10 -3 6 -2 10 4 10 5 0 13 -4 16 -10z"/>
</g>
</svg>
