<?xml version="1.0" standalone="no"?>
<!DOCTYPE svg PUBLIC "-//W3C//DTD SVG 20010904//EN"
 "http://www.w3.org/TR/2001/REC-SVG-20010904/DTD/svg10.dtd">
<svg version="1.0" xmlns="http://www.w3.org/2000/svg"
 width="300.000000pt" height="225.000000pt" viewBox="0 0 300.000000 225.000000"
 preserveAspectRatio="xMidYMid meet">
<metadata>
Created by potrace 1.10, written by Peter Selinger 2001-2011
</metadata>
<g transform="translate(0.000000,225.000000) scale(0.100000,-0.100000)"
fill="#000000" stroke="none">
<path d="M1310 1961 c-25 -9 -57 -23 -72 -31 -114 -65 -125 -73 -156 -123 -67
-109 -116 -149 -302 -243 -32 -16 -138 -128 -165 -174 -89 -151 -108 -216 -85
-300 35 -129 102 -132 214 -9 25 28 46 46 46 40 0 -5 -4 -13 -10 -16 -14 -9
-52 -142 -57 -200 -2 -27 -6 -56 -8 -62 -2 -7 2 -34 10 -60 8 -26 13 -49 11
-51 -8 -7 92 -92 107 -92 75 0 247 122 247 175 0 12 7 28 14 35 8 6 20 28 27
48 6 20 15 42 19 47 7 9 22 57 25 80 1 6 4 17 7 25 16 42 28 101 28 130 0 41
7 36 15 -10 3 -19 12 -55 19 -80 17 -52 26 -106 31 -170 5 -68 18 -131 34
-174 6 -16 14 -58 17 -95 3 -36 9 -73 14 -81 4 -8 5 -21 3 -27 -3 -7 0 -13 6
-13 7 0 16 -11 21 -25 12 -31 43 -33 57 -2 6 13 16 50 22 83 23 119 34 164 43
164 5 0 7 -8 4 -17 -23 -80 -33 -255 -16 -283 18 -29 38 0 51 72 7 40 19 87
26 103 l14 30 -5 -35 c-3 -19 -10 -69 -16 -110 -6 -41 -15 -86 -20 -100 -25
-67 -16 -155 15 -158 20 -1 45 32 45 59 0 81 120 456 150 467 8 3 19 10 23 16
11 13 6 -5 -26 -109 -18 -57 -29 -80 -40 -79 -12 1 -18 -11 -22 -40 -10 -66
-12 -136 -4 -136 3 0 9 -9 12 -20 5 -21 15 -24 33 -12 7 4 19 59 29 122 16
111 57 264 77 285 6 6 7 -43 3 -135 -4 -80 -6 -152 -5 -160 1 -8 1 -48 1 -88
l-1 -73 28 20 c24 17 28 26 27 58 -4 75 -5 179 -2 237 7 131 -20 224 -61 208
-20 -7 -42 -34 -36 -44 2 -4 -1 -10 -7 -13 -6 -4 -13 2 -16 13 -3 14 -10 19
-21 14 -22 -8 -46 -32 -47 -46 -1 -6 -4 -18 -7 -26 -43 -121 -68 -199 -82
-260 -8 -34 -17 -65 -21 -68 -7 -8 4 98 12 111 3 5 9 34 13 65 10 67 28 181
38 237 9 50 5 75 -13 75 -13 0 -35 -30 -41 -55 -2 -5 -10 -35 -19 -65 -9 -30
-17 -62 -17 -70 0 -8 -8 -49 -19 -90 -10 -41 -20 -88 -23 -105 -6 -41 2 106 9
175 3 30 11 73 16 95 6 22 14 63 19 90 5 28 14 66 19 85 6 19 13 47 16 63 3
17 12 27 24 27 24 0 54 27 75 69 14 26 16 46 11 90 -7 63 -23 93 -69 134 -31
27 -31 28 -6 25 110 -11 250 113 250 220 0 87 -100 142 -267 146 -23 1 -45 4
-49 8 -4 4 -12 4 -18 -1 -6 -5 -29 -13 -51 -17 -38 -7 -39 -6 -25 12 8 10 17
21 20 24 30 30 43 127 21 154 -16 19 -74 36 -116 35 -16 -1 -50 -9 -75 -18z
m148 -27 c12 -8 22 -25 22 -37 0 -46 -67 -141 -144 -205 -22 -19 -25 -26 -16
-37 13 -16 41 -6 71 25 25 26 125 41 225 35 147 -8 214 -40 214 -102 0 -64
-75 -145 -155 -169 -49 -14 -57 -13 -134 7 -45 12 -84 19 -87 16 -19 -18 63
-87 103 -87 59 0 123 -167 85 -222 -27 -39 -45 -49 -82 -44 -113 14 -182 44
-251 109 -20 19 -53 40 -74 47 -46 15 -49 11 -65 -79 -6 -37 -17 -79 -24 -96
-16 -39 -35 -91 -48 -134 -5 -19 -18 -46 -28 -60 -10 -14 -21 -42 -24 -62 -4
-23 -16 -43 -32 -55 -15 -11 -38 -28 -53 -39 -14 -11 -44 -30 -67 -42 -41 -23
-41 -23 -59 -3 -10 11 -25 22 -34 25 -38 12 -56 161 -31 245 6 19 13 46 16 60
3 14 17 50 31 80 14 30 27 60 27 65 1 6 11 28 23 51 31 58 15 76 -26 28 -17
-21 -31 -43 -31 -47 0 -24 -118 -149 -162 -173 -37 -19 -55 -9 -80 43 -25 52
-21 138 9 181 10 15 25 43 34 62 20 44 116 137 201 197 22 15 55 42 73 60 18
18 40 33 49 33 9 0 16 4 16 9 0 5 13 14 29 19 16 6 35 20 41 32 7 12 27 36 46
52 19 17 34 35 34 42 0 18 41 60 96 98 113 80 213 107 262 72z m-158 -744 c24
-22 47 -40 52 -40 5 0 24 -10 41 -23 18 -13 45 -24 60 -26 16 -1 43 -9 62 -16
l33 -14 -23 -63 c-12 -35 -33 -103 -45 -153 -12 -49 -27 -98 -32 -108 -5 -10
-12 -28 -14 -40 -3 -12 -6 -26 -8 -32 -1 -5 -6 -31 -11 -58 -4 -26 -11 -50
-16 -52 -10 -7 -26 52 -34 125 -3 30 -14 80 -25 110 -10 30 -21 82 -24 115 -8
89 -34 201 -65 278 -20 51 -9 50 49 -3z"/>
<path d="M1065 1600 c-41 -19 -75 -33 -86 -34 -17 -2 -79 -80 -87 -110 -11
-40 -7 -103 8 -121 19 -23 76 -38 99 -26 11 6 30 11 43 11 13 0 33 7 44 15 10
8 29 15 41 15 51 0 162 104 163 151 0 40 -28 64 -98 84 -35 10 -65 22 -68 27
-7 11 -13 10 -59 -12z m117 -57 c35 -15 65 -28 67 -30 7 -6 -30 -66 -53 -86
-26 -23 -72 -48 -78 -42 -2 3 -33 -3 -69 -13 -75 -20 -118 -18 -120 6 -5 58 4
88 38 120 20 17 41 32 48 32 6 0 15 3 19 7 6 7 61 29 78 32 4 0 35 -11 70 -26z"/>
</g>
</svg>
