<?xml version="1.0" standalone="no"?>
<!DOCTYPE svg PUBLIC "-//W3C//DTD SVG 20010904//EN"
 "http://www.w3.org/TR/2001/REC-SVG-20010904/DTD/svg10.dtd">
<svg version="1.0" xmlns="http://www.w3.org/2000/svg"
 width="5641.000000pt" height="2216.000000pt" viewBox="0 0 5641.000000 2216.000000"
 preserveAspectRatio="xMidYMid meet">

<g transform="translate(0.000000,2216.000000) scale(0.100000,-0.100000)"
fill="#000000" stroke="none">
<path d="M3660 22143 c-173 -14 -466 -78 -657 -144 -354 -122 -610 -312 -703
-522 -21 -46 -90 -307 -90 -339 0 -11 31 -33 90 -64 263 -139 430 -356 503
-654 14 -57 32 -100 54 -132 140 -196 148 -538 22 -920 -84 -253 -220 -539
-515 -1078 -365 -668 -520 -1014 -608 -1352 -57 -218 -71 -321 -86 -616 -19
-371 6 -742 105 -1581 94 -798 115 -1074 115 -1488 0 -333 -19 -508 -77 -733
-63 -248 -158 -471 -362 -855 -287 -539 -367 -723 -446 -1031 -55 -211 -76
-378 -82 -639 -7 -324 8 -474 111 -1070 45 -261 56 -365 56 -532 -1 -297 -65
-558 -204 -831 -71 -138 -134 -236 -327 -512 -246 -352 -379 -584 -468 -818
-70 -183 -95 -375 -80 -613 10 -166 33 -318 98 -649 55 -279 76 -406 86 -520
4 -41 29 -160 56 -265 26 -104 66 -278 88 -385 22 -107 42 -202 45 -210 3 -8
17 -80 30 -160 72 -429 240 -1053 341 -1266 116 -248 214 -340 711 -672 405
-270 894 -526 1315 -687 103 -40 245 -60 548 -77 817 -46 1575 205 2051 682
230 229 366 471 427 760 24 114 24 359 0 487 -50 267 -147 482 -303 672 -122
147 -270 260 -469 356 -288 140 -554 196 -1010 214 -233 10 -321 22 -445 63
-525 171 -878 772 -829 1410 39 513 268 866 693 1069 208 99 402 140 699 146
296 7 437 -16 612 -102 306 -150 484 -397 810 -1120 193 -429 309 -649 446
-850 187 -275 375 -462 640 -635 390 -255 772 -383 1404 -470 639 -88 853
-142 1085 -278 52 -30 174 -108 270 -172 393 -262 606 -368 889 -440 212 -54
530 -70 721 -36 370 65 744 265 1128 602 856 751 1645 2085 1946 3289 47 189
60 289 60 485 1 196 -9 279 -51 445 -199 798 -953 1322 -1633 1134 -212 -58
-467 -229 -624 -418 -225 -271 -332 -523 -487 -1151 -97 -389 -143 -539 -214
-685 -94 -192 -195 -301 -358 -386 -119 -62 -242 -90 -423 -96 -291 -10 -488
45 -728 204 -127 84 -380 333 -557 548 -425 517 -559 665 -744 824 -174 150
-325 251 -515 347 -352 177 -721 272 -1505 389 -611 91 -845 136 -1065 207
-366 117 -572 293 -620 532 -68 334 356 754 940 929 191 58 289 71 510 71 218
0 292 -10 547 -74 l153 -38 118 14 c148 17 321 50 617 119 314 73 346 79 705
130 1184 170 1727 350 2055 680 171 173 243 350 232 575 -7 138 -35 240 -102
375 -146 294 -432 561 -744 696 -212 91 -400 124 -656 116 -182 -6 -285 -21
-460 -67 -255 -67 -462 -151 -932 -378 -169 -82 -353 -169 -408 -193 -55 -23
-114 -55 -132 -70 -142 -122 -298 -145 -718 -110 -617 52 -984 34 -1270 -63
-137 -46 -272 -108 -455 -210 -372 -207 -510 -266 -623 -266 -117 0 -198 44
-244 133 -41 80 -38 170 11 311 l37 108 -11 151 c-23 291 15 598 115 947 18
63 85 257 148 430 171 469 213 609 259 857 19 104 22 155 23 428 l0 310 -45
90 c-98 193 -125 322 -125 590 0 187 2 206 27 298 74 265 210 525 599 1148
361 578 554 958 688 1352 242 711 252 1437 31 2082 -23 66 -80 212 -128 325
-67 160 -98 220 -139 275 -54 69 -97 152 -188 355 -26 58 -80 166 -121 240
-312 565 -679 772 -1284 723z"/>
<path d="M33343 20939 c-294 -34 -547 -132 -769 -297 -87 -64 -323 -292 -377
-362 l-26 -36 29 -90 c76 -237 61 -474 -50 -804 -88 -263 -206 -509 -510
-1065 -469 -858 -627 -1262 -675 -1725 -46 -447 -27 -841 90 -1830 98 -828
121 -1153 112 -1573 -6 -283 -19 -402 -67 -602 -59 -248 -135 -435 -320 -790
-357 -684 -441 -881 -515 -1209 -43 -194 -56 -311 -62 -557 -8 -327 9 -499 96
-994 61 -340 74 -473 68 -665 -8 -274 -63 -492 -187 -745 -68 -139 -183 -319
-404 -635 -245 -350 -405 -665 -461 -905 -27 -117 -37 -286 -25 -445 12 -173
32 -301 100 -645 78 -399 84 -450 85 -650 0 -213 -14 -291 -77 -418 -71 -142
-225 -278 -458 -405 -161 -88 -422 -190 -910 -357 -515 -176 -788 -296 -1010
-444 -550 -366 -796 -964 -659 -1599 75 -344 275 -666 534 -860 100 -75 271
-157 386 -186 320 -81 743 -48 1157 90 238 80 418 159 957 422 394 191 553
261 738 321 249 81 370 101 682 111 492 17 1020 69 1170 117 336 106 586 507
684 1098 33 202 44 341 44 560 -1 354 -47 551 -254 1083 -95 244 -152 408
-180 514 -11 43 -33 100 -49 127 -109 176 -188 440 -205 681 -12 167 21 419
75 580 142 422 479 701 974 806 100 21 158 27 338 31 230 6 324 -2 458 -39
269 -73 485 -259 676 -580 85 -143 140 -255 285 -575 202 -448 307 -650 442
-853 185 -279 385 -482 642 -652 66 -43 201 -119 300 -168 347 -171 621 -244
1225 -325 270 -37 405 -60 549 -96 254 -63 354 -112 711 -346 338 -221 423
-269 624 -350 234 -94 450 -135 711 -136 364 -1 666 99 1032 342 873 577 1774
1886 2196 3188 64 197 129 447 153 588 26 148 24 433 -4 587 -117 647 -581
1164 -1152 1284 -116 24 -336 24 -445 0 -219 -49 -428 -169 -615 -356 -195
-195 -326 -426 -440 -775 -23 -71 -82 -290 -131 -486 -98 -394 -136 -515 -209
-664 -89 -181 -204 -302 -365 -380 -131 -65 -228 -86 -420 -92 -290 -9 -498
50 -727 209 -185 128 -338 285 -678 698 -411 499 -596 682 -885 873 -389 257
-803 388 -1629 513 -743 112 -987 159 -1205 231 -345 113 -539 278 -597 504
-44 171 36 362 230 554 209 208 527 368 876 442 112 24 147 27 330 27 225 0
298 -9 540 -69 132 -33 222 -60 655 -199 865 -278 1356 -293 1917 -59 l106 44
49 72 c174 254 254 514 254 825 0 349 -113 635 -341 862 -308 309 -757 425
-1475 380 -88 -5 -261 -19 -385 -30 -125 -11 -289 -24 -365 -29 -77 -5 -174
-17 -215 -26 -87 -20 -238 -17 -530 11 -216 21 -709 24 -854 6 -288 -36 -467
-102 -837 -307 -377 -210 -482 -251 -615 -243 -122 8 -207 77 -234 189 -15 60
-9 126 21 225 l21 72 -22 63 c-14 40 -25 97 -28 150 -6 119 19 201 132 439
167 347 181 413 181 830 0 310 -2 335 -60 780 -54 411 -65 521 -72 715 -14
406 62 732 231 1000 21 32 36 75 45 120 29 164 136 417 286 680 38 66 163 273
278 460 406 656 572 973 712 1359 259 715 282 1462 65 2116 -51 154 -213 547
-233 567 -31 30 -340 118 -537 152 -226 40 -509 52 -697 30z"/>
<path d="M49854 18709 c-225 -21 -450 -112 -651 -261 -181 -135 -349 -304
-613 -618 -288 -342 -342 -403 -480 -544 -417 -426 -623 -530 -1645 -832 -694
-205 -912 -277 -1207 -397 -868 -354 -1300 -827 -1360 -1491 -14 -156 -1 -373
31 -517 133 -594 550 -939 1136 -939 318 0 494 67 986 376 299 187 486 285
591 309 100 23 142 14 197 -41 44 -44 44 -44 38 -103 -11 -127 -134 -331 -428
-706 -538 -688 -718 -977 -814 -1310 -49 -171 -58 -250 -52 -485 7 -317 43
-480 158 -731 28 -63 62 -142 75 -177 71 -187 81 -520 28 -977 -52 -452 -176
-761 -570 -1420 -224 -376 -312 -540 -379 -708 -213 -539 -150 -1022 204
-1548 154 -229 296 -374 500 -510 778 -518 1945 -396 3030 318 424 278 701
542 1241 1183 452 535 618 699 795 784 39 19 89 37 112 41 98 16 217 -54 267
-158 111 -226 10 -701 -300 -1412 -105 -243 -411 -851 -644 -1285 -511 -948
-592 -1122 -663 -1425 -48 -203 -61 -322 -61 -560 0 -238 13 -358 60 -555 81
-331 264 -648 484 -837 285 -245 630 -363 1060 -363 544 1 1013 166 1490 526
182 138 264 208 620 539 600 557 683 614 1413 966 425 205 606 303 802 434
328 219 579 455 738 693 250 374 389 914 357 1387 -10 155 -21 224 -56 354
-46 169 -130 335 -232 458 -89 106 -276 222 -417 258 -280 72 -587 17 -878
-159 -184 -110 -346 -245 -677 -561 -408 -390 -582 -525 -841 -652 -366 -180
-624 -207 -753 -77 -117 116 -135 359 -52 686 53 211 146 426 368 853 63 121
178 342 255 490 310 596 489 1012 596 1390 65 228 74 265 96 405 37 231 44
374 40 845 -8 938 -4 1369 14 1530 63 565 151 799 749 2000 321 646 446 930
563 1280 56 170 124 424 150 566 52 281 69 648 41 888 -75 642 -397 1065 -908
1192 -117 29 -349 36 -483 15 -457 -70 -870 -343 -1147 -757 -179 -267 -321
-650 -412 -1109 -34 -172 -70 -428 -111 -800 -84 -751 -144 -998 -329 -1362
-203 -399 -379 -611 -811 -971 -670 -559 -864 -856 -1275 -1957 -141 -378
-205 -532 -315 -755 -195 -397 -400 -684 -678 -951 -193 -186 -410 -322 -603
-380 -179 -53 -359 -31 -481 60 -103 75 -163 164 -212 311 -41 126 -55 247
-48 418 19 451 210 827 803 1583 501 639 531 679 686 899 304 433 420 663 508
1009 70 274 97 455 160 1076 67 663 105 891 192 1160 50 157 117 281 244 450
564 754 925 1496 1035 2125 26 154 36 427 20 559 -24 185 -94 385 -180 510
-148 215 -397 365 -736 444 -79 19 -291 44 -335 41 -8 -1 -51 -5 -96 -10z"/>
<path d="M20515 16028 c-214 -21 -442 -82 -614 -164 -268 -127 -500 -351 -685
-664 -81 -135 -139 -251 -318 -630 -319 -677 -525 -988 -898 -1360 -257 -256
-451 -420 -980 -827 -151 -116 -333 -260 -405 -319 -155 -129 -394 -366 -489
-484 -179 -224 -358 -540 -430 -761 -74 -227 -101 -438 -100 -804 0 -359 21
-601 110 -1284 100 -771 103 -834 84 -1686 -18 -779 -3 -1104 64 -1405 52
-230 116 -350 271 -506 123 -124 214 -188 380 -269 142 -69 251 -107 625 -215
428 -124 602 -194 790 -318 98 -65 220 -183 306 -297 34 -44 121 -170 194
-280 184 -276 286 -411 415 -544 320 -332 690 -507 1220 -578 180 -24 686 -24
902 0 981 110 1658 484 2275 1259 127 159 266 356 548 778 360 538 542 773
771 1001 226 225 419 359 744 518 499 245 829 469 1149 781 415 405 699 866
864 1405 71 231 110 439 143 760 16 156 17 608 1 755 -55 519 -198 951 -467
1420 -115 200 -142 298 -171 625 -28 317 -55 536 -80 663 -141 694 -590 1194
-1205 1342 -238 57 -471 67 -1014 45 -691 -28 -987 -4 -1282 107 -223 84 -415
248 -554 473 -23 39 -116 216 -205 395 -210 422 -309 570 -479 720 -69 61
-193 144 -281 188 -152 76 -394 140 -618 161 -128 13 -452 12 -581 -1z m-385
-4391 c195 -47 376 -120 705 -284 408 -205 688 -298 998 -334 59 -7 173 -9
280 -6 220 6 307 23 681 132 386 112 541 137 721 115 560 -67 1033 -561 1171
-1224 35 -169 43 -394 20 -537 -56 -337 -248 -676 -576 -1013 -409 -421 -956
-784 -1605 -1068 -217 -95 -412 -198 -814 -432 -167 -97 -379 -217 -470 -266
-722 -387 -1251 -489 -1805 -350 -663 167 -1109 677 -1265 1445 -45 220 -55
346 -55 665 -1 318 7 429 50 729 78 548 245 1090 463 1506 276 527 623 855
994 940 100 23 374 13 507 -18z"/>
</g>
</svg>
