<?xml version="1.0" standalone="no"?>
<!DOCTYPE svg PUBLIC "-//W3C//DTD SVG 20010904//EN"
 "http://www.w3.org/TR/2001/REC-SVG-20010904/DTD/svg10.dtd">
<svg version="1.0" xmlns="http://www.w3.org/2000/svg"
 width="26.000000pt" height="300.000000pt" viewBox="0 0 26.000000 300.000000"
 preserveAspectRatio="xMidYMid meet">
<metadata>
Created by potrace 1.10, written by Peter Selinger 2001-2011
</metadata>
<g transform="translate(0.000000,300.000000) scale(0.100000,-0.100000)"
fill="#000000" stroke="none">
<path d="M10 2992 c0 -13 59 -92 68 -92 4 0 17 3 30 6 32 9 27 25 -6 18 -23
-5 -30 0 -52 35 -24 38 -40 52 -40 33z"/>
<path d="M170 2991 c0 -11 70 -65 76 -58 6 6 -57 67 -68 67 -5 0 -8 -4 -8 -9z"/>
<path d="M110 2866 c0 -14 -5 -17 -25 -12 -40 10 -29 -11 13 -23 l37 -10 -42
2 c-49 3 -56 -7 -15 -21 26 -9 27 -9 5 -16 -13 -4 -23 -14 -23 -21 0 -17 36
-38 53 -31 7 2 2 8 -10 11 -29 9 -29 23 -1 34 21 8 38 5 93 -14 15 -5 14 -1
-7 17 -33 28 -35 38 -8 38 11 0 20 4 20 10 0 5 -14 7 -32 4 -32 -6 -32 -6 -13
11 20 16 20 16 -3 12 -14 -3 -26 1 -32 11 -8 15 -9 15 -10 -2z"/>
<path d="M105 2707 c-5 -12 -14 -16 -29 -12 -19 6 -19 5 4 -15 l25 -22 -28 7
c-28 6 -28 6 11 -35 35 -37 44 -41 78 -38 36 3 39 5 39 33 0 22 -5 31 -20 33
-20 4 -20 4 0 -11 19 -15 19 -17 3 -33 -12 -13 -22 -14 -44 -7 -32 11 -44 33
-17 33 17 1 17 1 1 14 -17 12 -16 14 5 24 16 8 18 11 5 11 -9 1 -18 9 -21 19
-4 16 -4 16 -12 -1z"/>
<path d="M83 2549 c-61 -18 -87 -93 -36 -105 40 -10 76 14 87 59 10 39 19 43
61 27 36 -14 29 -40 -15 -62 -33 -16 -34 -17 -9 -18 31 0 59 28 59 59 0 16
-10 26 -35 37 -38 16 -65 17 -112 3z m47 -19 c0 -42 -48 -80 -85 -66 -12 4
-13 10 -3 30 14 32 88 62 88 36z"/>
<path d="M80 2400 c0 -5 -11 -10 -25 -10 -14 0 -25 -4 -25 -10 0 -5 9 -10 21
-10 16 0 19 -4 13 -22 -3 -13 -11 -28 -16 -35 -6 -7 -5 -14 2 -18 7 -4 17 10
27 34 11 28 24 43 40 47 12 4 23 10 23 16 0 5 -9 6 -20 3 -11 -4 -20 -2 -20 4
0 6 -4 11 -10 11 -5 0 -10 -4 -10 -10z"/>
<path d="M160 2392 c0 -6 16 -12 35 -14 22 -2 34 0 32 6 -4 14 -67 21 -67 8z"/>
<path d="M130 2309 c0 -5 23 -9 50 -9 28 0 50 4 50 9 0 5 -22 9 -50 9 -27 1
-50 -3 -50 -9z"/>
<path d="M100 2253 c0 -8 -14 -13 -35 -13 -19 0 -35 -5 -35 -11 0 -8 11 -9 31
-5 27 5 30 3 24 -12 -16 -41 0 -47 62 -21 26 11 35 11 45 1 16 -16 -4 -32 -39
-32 -13 0 -23 -5 -23 -10 0 -11 42 -4 73 12 22 11 22 35 -2 47 -17 10 -46 5
-95 -14 -16 -7 -17 -6 -7 13 8 15 21 22 41 22 17 0 30 5 30 10 0 6 -11 8 -26
4 -17 -4 -29 -2 -35 7 -6 10 -9 11 -9 2z"/>
<path d="M40 2094 c-12 -29 -12 -46 -4 -68 7 -18 39 -21 49 -5 4 6 0 9 -11 7
-23 -4 -31 40 -14 72 7 14 7 20 0 20 -6 0 -15 -12 -20 -26z"/>
<path d="M130 2094 c-35 -13 -34 -16 5 -18 25 -1 31 -20 7 -22 -9 -1 -23 -2
-30 -3 -8 -1 -12 -10 -10 -23 4 -32 46 -37 68 -8 l16 21 28 -22 c19 -15 27
-18 24 -8 -2 8 -17 20 -31 27 -34 17 -35 42 -2 42 14 0 25 5 25 10 0 6 -9 10
-19 10 -11 0 -25 2 -33 4 -7 2 -29 -2 -48 -10z"/>
<path d="M70 1955 c0 -8 -9 -15 -21 -15 -11 0 -18 -4 -15 -9 3 -5 15 -7 26 -4
27 7 27 -23 0 -37 -11 -6 -20 -15 -20 -21 0 -6 7 -6 20 1 16 9 20 8 21 -7 0
-12 5 -8 14 12 17 38 55 60 90 51 36 -9 29 -36 -15 -58 -38 -20 -16 -25 24 -6
33 14 43 45 22 67 -12 12 -32 15 -71 14 -43 -2 -55 0 -55 12 0 8 -4 15 -10 15
-5 0 -10 -7 -10 -15z"/>
<path d="M90 1805 c0 -10 -10 -15 -30 -15 -16 0 -30 -4 -30 -10 0 -5 9 -10 20
-10 25 0 25 -4 -2 -40 -12 -16 -19 -32 -16 -35 3 -4 21 14 39 39 18 25 38 46
46 46 7 0 13 5 13 10 0 6 -6 9 -12 8 -7 -2 -12 3 -10 10 1 6 -2 12 -8 12 -5 0
-10 -7 -10 -15z"/>
<path d="M160 1792 c0 -6 16 -12 35 -14 22 -2 34 0 32 6 -4 14 -67 21 -67 8z"/>
<path d="M115 1710 c3 -5 33 -10 66 -10 33 0 59 4 59 10 0 6 -29 10 -66 10
-41 0 -63 -4 -59 -10z"/>
<path d="M75 1623 c9 -63 21 -83 49 -83 31 0 86 20 86 31 0 12 -17 11 -25 -1
-3 -5 -22 -10 -41 -10 -28 0 -36 5 -44 26 -6 14 -10 39 -10 55 0 16 -5 29 -11
29 -8 0 -9 -15 -4 -47z"/>
<path d="M83 1510 c-56 -13 -87 -56 -63 -85 31 -37 120 4 120 55 0 19 4 21 33
15 40 -9 51 -19 44 -40 -6 -14 -14 -18 -55 -31 -7 -2 -11 -8 -7 -13 15 -25 85
23 85 58 0 32 -92 55 -157 41z m47 -23 c0 -30 -31 -57 -66 -57 -70 0 -22 62
54 69 6 0 12 -5 12 -12z"/>
<path d="M91 1368 c-1 -10 -10 -19 -21 -19 -33 -2 -38 -4 -46 -11 -4 -5 5 -8
20 -8 l27 0 -21 -30 c-12 -16 -17 -30 -11 -30 5 0 19 14 31 30 15 21 30 30 50
30 16 0 31 -4 34 -8 9 -15 -24 -52 -45 -52 -11 0 -17 -4 -14 -10 18 -29 75 13
75 54 0 24 -16 36 -50 36 -10 0 -21 8 -23 18 -4 16 -5 16 -6 0z"/>
<path d="M200 1365 c1 -16 40 -58 47 -51 4 4 -5 19 -20 34 -15 14 -27 22 -27
17z"/>
<path d="M90 1211 c0 -17 -6 -21 -36 -21 -21 0 -33 -4 -29 -10 3 -5 15 -10 26
-10 26 0 24 -15 -8 -39 -14 -12 -24 -24 -21 -26 11 -11 38 8 58 40 15 24 26
32 47 31 16 -1 27 -4 26 -8 -2 -5 -3 -12 -3 -17 0 -5 -17 -13 -37 -19 -37 -10
-38 -10 -7 -11 41 -1 67 19 62 50 -3 21 -8 24 -37 21 -26 -2 -32 1 -28 12 4 9
2 18 -3 21 -6 4 -10 -3 -10 -14z"/>
<path d="M212 1173 c15 -15 31 -23 35 -19 4 4 -3 16 -17 26 -37 29 -49 24 -18
-7z"/>
<path d="M65 1071 c-4 -7 9 -11 35 -11 25 0 39 -4 35 -10 -3 -5 -22 -10 -41
-10 -45 0 -74 -16 -74 -40 0 -28 38 -26 80 5 30 22 60 26 79 9 7 -7 -32 -44
-46 -44 -7 0 -13 -4 -13 -10 0 -18 26 -10 50 15 17 18 30 23 49 19 24 -5 25
-4 9 9 -10 8 -18 19 -18 25 0 6 -12 10 -27 9 -21 -2 -28 2 -28 18 0 16 -8 21
-42 23 -22 2 -44 -2 -48 -7z m23 -57 c-8 -9 -26 -14 -39 -12 l-24 5 25 11 c14
6 32 11 40 11 12 1 12 -2 -2 -15z"/>
<path d="M100 861 c0 -5 12 -11 28 -14 15 -3 35 -9 45 -12 9 -4 17 -3 17 3 0
10 -52 32 -76 32 -8 0 -14 -4 -14 -9z"/>
<path d="M86 826 c3 -8 16 -17 29 -20 13 -3 31 -9 42 -12 33 -12 0 14 -39 30
-31 13 -36 14 -32 2z"/>
<path d="M65 780 c3 -5 13 -10 21 -10 8 0 32 -9 54 -20 43 -22 50 -24 50 -12
0 11 -87 52 -111 52 -11 0 -17 -4 -14 -10z"/>
<path d="M39 696 c-2 -3 -3 -24 -1 -48 l4 -44 79 4 c53 3 79 0 79 -7 0 -6 4
-11 8 -11 5 0 8 23 8 52 l-1 52 -86 3 c-47 2 -88 1 -90 -1z m161 -40 c0 -23
-5 -25 -64 -31 -73 -8 -86 -4 -86 31 0 23 2 24 75 24 73 0 75 -1 75 -24z"/>
<path d="M87 563 c-32 -2 -55 -8 -52 -13 3 -5 40 -7 84 -3 l78 6 5 -26 c3 -15
3 -29 0 -32 -3 -3 -41 -5 -84 -5 -45 0 -78 -4 -78 -10 0 -6 37 -10 90 -10 l90
0 0 39 c0 22 -3 42 -7 44 -16 9 -70 13 -126 10z"/>
<path d="M32 433 c-17 -3 -32 -7 -32 -11 0 -4 48 -6 107 -4 100 4 106 3 93
-12 -7 -10 -26 -24 -41 -31 -23 -13 -29 -13 -39 0 -14 17 -30 20 -30 5 0 -5
20 -23 45 -40 46 -32 58 -31 28 2 -13 15 -13 18 -2 18 21 0 85 57 76 66 -9 9
-148 13 -205 7z"/>
<path d="M170 290 c-14 -4 -46 -8 -72 -9 -27 -1 -48 -6 -48 -12 0 -7 14 -9 40
-5 22 3 40 2 40 -3 0 -10 -50 -21 -96 -21 -19 0 -34 -5 -34 -10 0 -7 23 -8 68
-4 60 7 66 6 54 -9 -7 -8 -32 -25 -55 -36 -37 -18 -39 -21 -16 -21 15 0 43 15
66 35 34 29 49 35 87 35 25 0 46 5 46 10 0 6 -22 10 -50 10 -55 0 -67 15 -20
25 16 4 32 11 35 16 7 11 -10 10 -45 -1z"/>
<path d="M35 120 c3 -5 44 -10 91 -10 83 0 84 0 84 -25 0 -25 -1 -25 -87 -25
-64 0 -84 -3 -76 -11 7 -7 40 -10 87 -7 67 3 76 1 76 -14 0 -10 5 -18 10 -18
6 0 10 24 10 54 l0 53 -37 7 c-61 10 -165 7 -158 -4z"/>
</g>
</svg>
