<?xml version="1.0" standalone="no"?>
<!DOCTYPE svg PUBLIC "-//W3C//DTD SVG 20010904//EN"
 "http://www.w3.org/TR/2001/REC-SVG-20010904/DTD/svg10.dtd">
<svg version="1.0" xmlns="http://www.w3.org/2000/svg"
 width="300.000000pt" height="225.000000pt" viewBox="0 0 300.000000 225.000000"
 preserveAspectRatio="xMidYMid meet">
<metadata>
Created by potrace 1.10, written by Peter Selinger 2001-2011
</metadata>
<g transform="translate(0.000000,225.000000) scale(0.100000,-0.100000)"
fill="#000000" stroke="none">
<path d="M2057 1833 c-25 -62 -30 -77 -28 -90 2 -13 -41 -147 -63 -196 -22
-50 -29 -71 -28 -80 1 -4 -3 -28 -9 -55 -6 -26 -13 -56 -15 -67 -2 -11 -6 -29
-8 -40 -13 -66 -52 -158 -79 -192 -42 -50 -89 -95 -94 -89 -5 5 17 72 43 131
10 22 17 43 16 47 -1 4 14 42 32 85 37 83 44 108 49 163 2 20 6 41 10 47 4 6
0 16 -8 23 -20 17 -62 -4 -71 -34 -4 -12 -19 -49 -35 -83 -39 -86 -68 -178
-76 -240 -7 -61 -18 -61 -28 0 -4 23 -15 74 -25 112 -11 39 -21 103 -22 142
-2 40 -7 73 -12 73 -4 0 -6 7 -2 15 3 8 1 15 -5 15 -6 0 -7 5 -4 11 4 6 0 16
-9 22 -9 7 -18 23 -21 36 -2 12 -9 29 -15 36 -5 6 -12 25 -13 41 -2 16 -11 46
-20 66 -9 21 -17 42 -17 48 0 15 -56 12 -70 -5 -9 -11 -8 -21 4 -47 9 -17 19
-50 23 -72 3 -23 10 -46 14 -52 5 -6 6 -14 2 -17 -3 -4 -2 -12 3 -19 6 -7 11
-26 13 -43 1 -16 11 -39 21 -50 10 -11 20 -24 21 -30 1 -5 3 -14 4 -20 2 -5 6
-32 9 -60 12 -102 25 -149 45 -165 11 -8 30 -80 22 -80 -4 0 -17 9 -29 20 -12
12 -22 18 -22 15 0 -16 -88 46 -108 76 -39 57 -180 197 -219 218 -40 21 -93
64 -93 75 0 11 -76 120 -93 135 -20 16 -57 5 -57 -17 0 -38 34 -111 57 -121
13 -6 26 -18 29 -26 4 -8 11 -15 17 -15 10 0 70 -56 227 -211 49 -48 79 -84
95 -110 23 -40 115 -127 155 -149 36 -19 15 -23 -37 -6 -26 8 -81 23 -122 31
-41 9 -79 19 -85 24 -6 5 -14 9 -19 9 -4 0 -26 3 -50 6 -23 3 -64 9 -92 12
-31 3 -92 26 -161 60 -61 30 -120 54 -131 54 -10 0 -24 5 -29 10 -13 13 -44 3
-44 -14 0 -20 78 -95 122 -117 37 -19 40 -23 25 -34 -9 -7 -17 -23 -17 -37 0
-79 172 -100 381 -47 90 23 91 23 192 6 129 -22 124 -22 119 12 -3 20 -24 45
-72 87 -91 78 -94 97 -8 49 30 -17 51 -38 64 -65 19 -39 50 -57 40 -22 -3 9
-8 35 -12 56 -7 38 -6 39 17 32 13 -4 32 -8 41 -8 14 1 16 -7 11 -51 -3 -29
-12 -63 -20 -76 -14 -22 -14 -27 1 -51 l16 -27 -43 -6 c-48 -7 -55 -3 -37 18
19 23 5 30 -30 15 -29 -12 -96 -75 -140 -132 -12 -16 -27 -28 -34 -28 -7 0
-21 -9 -31 -20 -10 -11 -23 -20 -29 -20 -27 0 -109 -57 -191 -132 -22 -20 -51
-46 -64 -56 -34 -26 -23 -56 14 -42 23 9 109 71 195 140 14 12 45 34 70 50 87
57 135 94 200 155 l25 24 2 -72 c0 -40 2 -115 3 -167 1 -52 -3 -138 -9 -190
-7 -52 -14 -109 -16 -127 -4 -39 19 -64 39 -42 42 43 60 231 36 374 -18 108
-14 133 23 155 l32 20 15 -21 c15 -21 54 -65 126 -141 22 -24 50 -64 63 -89
24 -52 47 -76 76 -81 15 -2 21 3 23 25 2 18 -2 29 -12 33 -9 3 -16 12 -16 20
0 8 -4 14 -9 14 -5 0 -14 12 -19 28 -5 15 -33 52 -62 82 -28 30 -67 79 -86
108 -33 51 -36 72 -12 72 7 0 42 16 79 35 36 19 94 42 128 51 39 11 61 23 61
32 0 11 -8 13 -32 8 -44 -8 -178 -25 -201 -26 -26 0 -15 29 44 121 27 41 49
78 49 82 0 4 8 19 17 34 10 14 19 35 21 47 2 12 5 28 7 36 2 8 4 32 4 53 1 34
3 37 16 23 8 -8 15 -23 15 -34 0 -23 29 -37 44 -22 5 5 21 10 34 10 27 0 52
49 54 108 0 20 5 48 10 61 11 30 -5 51 -34 43 -18 -4 -20 -2 -16 16 7 25 -22
55 -45 46 -14 -5 -15 -1 -8 23 5 15 17 46 26 68 10 22 19 54 21 70 2 17 9 42
15 58 9 21 8 31 -1 42 -20 24 -36 17 -53 -22z m14 -304 c26 -33 32 -50 30 -81
-4 -81 -32 -108 -72 -72 -9 8 -26 17 -36 18 -14 3 -18 11 -15 44 2 43 37 132
52 132 4 0 23 -19 41 -41z m-256 -161 c-4 -13 -13 -36 -20 -53 -7 -16 -16 -39
-19 -49 -4 -10 -9 -16 -12 -13 -8 8 38 137 49 137 5 0 5 -10 2 -22z m-864
-235 c146 -78 154 -83 134 -83 -47 0 -170 63 -204 104 -20 24 -8 20 70 -21z
m117 -118 c72 -15 164 -12 187 6 6 4 30 3 54 -3 46 -12 39 -28 -12 -28 -16 0
-36 -4 -46 -9 -27 -15 -133 -21 -201 -11 -70 10 -96 25 -79 46 14 17 9 17 97
-1z m719 -11 c0 -18 -52 -64 -74 -64 -24 0 -10 23 33 52 21 15 39 27 40 28 0
0 1 -7 1 -16z m29 -94 c-43 -18 -74 -26 -83 -21 -18 10 78 50 122 50 24 0 16
-5 -39 -29z m-126 -47 c0 -10 -32 -43 -42 -43 -4 0 -8 11 -8 25 0 20 5 25 25
25 14 0 25 -3 25 -7z"/>
<path d="M1736 1723 c-16 -83 -17 -133 -3 -133 15 0 27 47 27 112 0 45 -16 59
-24 21z"/>
<path d="M1358 618 c-14 -13 -41 -38 -61 -56 -53 -46 -50 -74 5 -53 31 12 130
110 122 122 -9 16 -40 10 -66 -13z"/>
</g>
</svg>
